<mxfile host="app.diagrams.net" modified="2023-05-27T14:22:02.117Z" agent="Mozilla/5.0 (Macintosh; Intel Mac OS X 10_15_7) AppleWebKit/605.1.15 (KHTML, like Gecko) Version/15.1 Safari/605.1.15" etag="2NUYh8xBWA1neNr_q8KF" version="21.3.4" type="github">
  <diagram name="Page-1" id="1Vrmx30w-xlG3EvxixVw">
    <mxGraphModel dx="741" dy="448" grid="1" gridSize="10" guides="1" tooltips="1" connect="1" arrows="1" fold="1" page="1" pageScale="1" pageWidth="827" pageHeight="1169" math="0" shadow="0">
      <root>
        <mxCell id="0" />
        <mxCell id="1" parent="0" />
        <mxCell id="BRDm-R0gY2oCsDtSVM6u-1" value="A" style="text;html=1;strokeColor=none;fillColor=none;align=center;verticalAlign=middle;whiteSpace=wrap;rounded=0;fontSize=27;" vertex="1" parent="1">
          <mxGeometry x="88" y="250" width="30" height="30" as="geometry" />
        </mxCell>
        <mxCell id="BRDm-R0gY2oCsDtSVM6u-2" value="B" style="text;html=1;strokeColor=none;fillColor=none;align=center;verticalAlign=middle;whiteSpace=wrap;rounded=0;fontSize=27;" vertex="1" parent="1">
          <mxGeometry x="151" y="250" width="30" height="30" as="geometry" />
        </mxCell>
        <mxCell id="BRDm-R0gY2oCsDtSVM6u-3" value="" style="endArrow=classic;html=1;rounded=0;" edge="1" parent="1" target="BRDm-R0gY2oCsDtSVM6u-2">
          <mxGeometry width="50" height="50" relative="1" as="geometry">
            <mxPoint x="166" y="320" as="sourcePoint" />
            <mxPoint x="218" y="265" as="targetPoint" />
          </mxGeometry>
        </mxCell>
        <mxCell id="BRDm-R0gY2oCsDtSVM6u-4" value="" style="endArrow=classic;html=1;rounded=0;entryX=0.75;entryY=1;entryDx=0;entryDy=0;" edge="1" parent="1" target="BRDm-R0gY2oCsDtSVM6u-1">
          <mxGeometry width="50" height="50" relative="1" as="geometry">
            <mxPoint x="156" y="320" as="sourcePoint" />
            <mxPoint x="207" y="319" as="targetPoint" />
          </mxGeometry>
        </mxCell>
        <mxCell id="BRDm-R0gY2oCsDtSVM6u-5" value="D" style="text;html=1;strokeColor=none;fillColor=none;align=center;verticalAlign=middle;whiteSpace=wrap;rounded=0;fontSize=27;" vertex="1" parent="1">
          <mxGeometry x="140" y="321" width="60" height="30" as="geometry" />
        </mxCell>
        <mxCell id="BRDm-R0gY2oCsDtSVM6u-6" value="C" style="text;html=1;strokeColor=none;fillColor=none;align=center;verticalAlign=middle;whiteSpace=wrap;rounded=0;fontSize=27;" vertex="1" parent="1">
          <mxGeometry x="222" y="250" width="30" height="30" as="geometry" />
        </mxCell>
        <mxCell id="BRDm-R0gY2oCsDtSVM6u-7" value="" style="endArrow=classic;html=1;rounded=0;entryX=0;entryY=0.5;entryDx=0;entryDy=0;exitX=1;exitY=0.5;exitDx=0;exitDy=0;" edge="1" parent="1" source="BRDm-R0gY2oCsDtSVM6u-2" target="BRDm-R0gY2oCsDtSVM6u-6">
          <mxGeometry width="50" height="50" relative="1" as="geometry">
            <mxPoint x="176" y="330" as="sourcePoint" />
            <mxPoint x="175" y="290" as="targetPoint" />
          </mxGeometry>
        </mxCell>
        <mxCell id="BRDm-R0gY2oCsDtSVM6u-8" value="&lt;h1 style=&quot;text-align: center; font-size: 15px;&quot;&gt;&lt;font style=&quot;font-size: 15px;&quot;&gt;&lt;font style=&quot;font-size: 15px;&quot;&gt;Conditional Independenc&lt;/font&gt;e&lt;/font&gt;&lt;/h1&gt;&lt;div style=&quot;text-align: center;&quot;&gt;&lt;font style=&quot;font-size: 15px;&quot;&gt;A &amp;nbsp; &amp;nbsp; &amp;nbsp; &amp;nbsp; &amp;nbsp;B,C | D&lt;/font&gt;&lt;/div&gt;&lt;p style=&quot;text-align: center; font-size: 15px;&quot;&gt;&lt;span style=&quot;&quot;&gt;P(A|B,C,D) = P(A|D)&lt;/span&gt;&lt;br&gt;&lt;/p&gt;" style="text;html=1;strokeColor=#b85450;fillColor=#f8cecc;spacing=5;spacingTop=-20;whiteSpace=wrap;overflow=hidden;rounded=0;" vertex="1" parent="1">
          <mxGeometry x="91" y="380" width="170" height="110" as="geometry" />
        </mxCell>
        <mxCell id="BRDm-R0gY2oCsDtSVM6u-9" value="" style="group" vertex="1" connectable="0" parent="1">
          <mxGeometry x="153" y="426" width="23" height="20" as="geometry" />
        </mxCell>
        <mxCell id="BRDm-R0gY2oCsDtSVM6u-10" value="" style="endArrow=none;html=1;rounded=0;" edge="1" parent="BRDm-R0gY2oCsDtSVM6u-9">
          <mxGeometry width="50" height="50" relative="1" as="geometry">
            <mxPoint x="23" y="20" as="sourcePoint" />
            <mxPoint y="20" as="targetPoint" />
          </mxGeometry>
        </mxCell>
        <mxCell id="BRDm-R0gY2oCsDtSVM6u-11" value="" style="endArrow=none;html=1;rounded=0;" edge="1" parent="BRDm-R0gY2oCsDtSVM6u-9">
          <mxGeometry width="50" height="50" relative="1" as="geometry">
            <mxPoint x="8.625" as="sourcePoint" />
            <mxPoint x="8.625" y="20" as="targetPoint" />
          </mxGeometry>
        </mxCell>
        <mxCell id="BRDm-R0gY2oCsDtSVM6u-12" value="" style="endArrow=none;html=1;rounded=0;" edge="1" parent="BRDm-R0gY2oCsDtSVM6u-9">
          <mxGeometry width="50" height="50" relative="1" as="geometry">
            <mxPoint x="13.225" as="sourcePoint" />
            <mxPoint x="13.225" y="20" as="targetPoint" />
            <Array as="points">
              <mxPoint x="13.225" y="6.666666666666666" />
            </Array>
          </mxGeometry>
        </mxCell>
        <mxCell id="BRDm-R0gY2oCsDtSVM6u-13" value="&lt;h1 style=&quot;text-align: center; font-size: 15px;&quot;&gt;&lt;font style=&quot;font-size: 15px;&quot;&gt;&lt;font style=&quot;font-size: 15px;&quot;&gt;Conditional Independenc&lt;/font&gt;e&lt;/font&gt;&lt;/h1&gt;&lt;p style=&quot;text-align: center; font-size: 15px;&quot;&gt;&lt;span style=&quot;&quot;&gt;D &amp;nbsp; &amp;nbsp; &amp;nbsp; &amp;nbsp; C | B&lt;/span&gt;&lt;/p&gt;&lt;p style=&quot;text-align: center; font-size: 15px;&quot;&gt;&lt;span style=&quot;&quot;&gt;P(D|A,B,C) = P(D|A,B)&lt;/span&gt;&lt;br&gt;&lt;/p&gt;" style="text;html=1;strokeColor=#b85450;fillColor=#f8cecc;spacing=5;spacingTop=-20;whiteSpace=wrap;overflow=hidden;rounded=0;" vertex="1" parent="1">
          <mxGeometry x="293" y="380" width="170" height="110" as="geometry" />
        </mxCell>
        <mxCell id="BRDm-R0gY2oCsDtSVM6u-14" value="" style="group" vertex="1" connectable="0" parent="1">
          <mxGeometry x="360" y="427" width="23" height="20" as="geometry" />
        </mxCell>
        <mxCell id="BRDm-R0gY2oCsDtSVM6u-15" value="" style="endArrow=none;html=1;rounded=0;" edge="1" parent="BRDm-R0gY2oCsDtSVM6u-14">
          <mxGeometry width="50" height="50" relative="1" as="geometry">
            <mxPoint x="23" y="20" as="sourcePoint" />
            <mxPoint y="20" as="targetPoint" />
          </mxGeometry>
        </mxCell>
        <mxCell id="BRDm-R0gY2oCsDtSVM6u-16" value="" style="endArrow=none;html=1;rounded=0;" edge="1" parent="BRDm-R0gY2oCsDtSVM6u-14">
          <mxGeometry width="50" height="50" relative="1" as="geometry">
            <mxPoint x="8.625" as="sourcePoint" />
            <mxPoint x="8.625" y="20" as="targetPoint" />
          </mxGeometry>
        </mxCell>
        <mxCell id="BRDm-R0gY2oCsDtSVM6u-17" value="" style="endArrow=none;html=1;rounded=0;" edge="1" parent="BRDm-R0gY2oCsDtSVM6u-14">
          <mxGeometry width="50" height="50" relative="1" as="geometry">
            <mxPoint x="13.225" as="sourcePoint" />
            <mxPoint x="13.225" y="20" as="targetPoint" />
            <Array as="points">
              <mxPoint x="13.225" y="6.666666666666666" />
            </Array>
          </mxGeometry>
        </mxCell>
      </root>
    </mxGraphModel>
  </diagram>
</mxfile>
